<?xml version="1.0" encoding="UTF-8"?>
<svg id="Layer_1" xmlns="http://www.w3.org/2000/svg" version="1.1" viewBox="0 0 193.13 81">
  <!-- Generator: Adobe Illustrator 29.0.0, SVG Export Plug-In . SVG Version: 2.1.0 Build 186)  -->
  <defs>
    <style>
      .st0 {
        fill: #148f96;
      }

      .st1 {
        display: none;
      }

      .st1, .st2 {
        fill: #282828;
      }

      .st3 {
        fill: #fff;
      }
    </style>
  </defs>
  <g>
    <path class="st2" d="M40.07,28.5s.07,0,0,0h0ZM39.05,33.98s-.02.03,0,.05c0-.02,0-.03,0-.05ZM39.05,33.98s-.02.03,0,.05c0-.02,0-.03,0-.05ZM39.05,33.98s-.02.03,0,.05c0-.02,0-.03,0-.05ZM39.05,33.98s-.02.03,0,.05c0-.02,0-.03,0-.05ZM39.05,33.98s-.02.03,0,.05c0-.02,0-.03,0-.05ZM39.05,33.98s-.02.03,0,.05c0-.02,0-.03,0-.05ZM39.05,33.98s-.02.03,0,.05c0-.02,0-.03,0-.05ZM39.05,33.98s-.02.03,0,.05c0-.02,0-.03,0-.05ZM39.05,33.98s-.02.03,0,.05c0-.02,0-.03,0-.05ZM39.05,33.98s-.02.03,0,.05c0-.02,0-.03,0-.05ZM39.05,33.98s-.02.03,0,.05c0-.02,0-.03,0-.05ZM39.05,33.98s-.02.03,0,.05c0-.02,0-.03,0-.05ZM36.13,3.64c2.43,2.77,5.18,7.06,6.24,12.71,1.49,7.91-3.47,15.97-3.25,13.43,1.32-4.33.37-8.76-3.07-11.8,0,0,1.52-4.51.19-9.79-.43-1.69-1.18-3.16-2.04-4.55h-2.88c-5.72,0-10.6,1.12-14.66,3.36-4.05,2.24-7.17,5.35-9.36,9.33-2.19,3.98-3.28,8.58-3.28,13.8s1.12,9.81,3.36,13.91c2.24,4.1,5.4,7.32,9.47,9.66,1.82,1.04,3.78,1.85,5.9,2.43,3.73-7.57,7.58-15.9,7.48-24.25-.09-7.56-11.92,2.51-14.51,4.69-8.7,8.74,3.1-5.37,5.28-7.91,6.23-7.28,17.72-13.79,16.05,1.48-.67,6.14-7.01,18.27-12.02,26.51,1.98.37,4.09.56,6.31.56h18.95V3.64h-14.14ZM27.94,39.86c-.44.08-.86-.21-.94-.65-.08-.44.21-.86.65-.94.44-.08.86.21.94.65.08.44-.21.86-.65.94ZM28.5,36.86c-.55.1-1.07-.27-1.16-.81-.1-.55.26-1.07.81-1.16.55-.1,1.07.26,1.16.81.1.54-.26,1.07-.81,1.16ZM27.93,31.02c.78-.14,1.52.38,1.66,1.16.14.78-.38,1.52-1.16,1.66-.78.14-1.52-.38-1.66-1.16-.14-.78.38-1.52,1.16-1.66ZM26.87,40.73c.4-.07.78.19.85.59.07.4-.19.78-.59.85-.4.07-.78-.19-.85-.59-.07-.4.19-.78.59-.85ZM25.94,42.9c.32-.06.63.16.68.48.06.32-.16.63-.48.68-.32.06-.62-.15-.68-.47-.06-.32.15-.63.47-.68ZM25.04,44.68c.22-.04.42.11.46.32.04.22-.11.42-.32.46-.22.04-.42-.11-.46-.32-.04-.22.11-.43.32-.46ZM29.63,19.53c-2.63,0-4.76-2.13-4.76-4.75s2.13-4.76,4.76-4.76,4.75,2.13,4.75,4.76-2.13,4.75-4.75,4.75ZM45.9,16.24c.06.79-.54,1.47-1.32,1.53s-1.47-.54-1.53-1.32c-.06-.79.53-1.47,1.32-1.53.79-.06,1.47.53,1.53,1.32ZM44.9,12.89c.04.55-.37,1.03-.93,1.07-.55.04-1.03-.37-1.07-.93-.04-.55.38-1.03.93-1.07.55-.04,1.03.38,1.07.93ZM38.65,5.23c-.22.02-.41-.15-.43-.37-.02-.22.15-.41.37-.43.22-.02.41.15.43.37.02.22-.15.41-.37.43ZM39.96,6.73c-.32.02-.6-.22-.63-.54-.02-.32.22-.61.54-.63.32-.02.6.22.63.54.02.32-.22.61-.54.63ZM40.61,7.92c-.03-.4.27-.75.68-.78.4-.03.75.27.78.67.03.4-.27.75-.68.78-.4.03-.75-.27-.78-.68ZM41.87,10.05c-.03-.45.3-.83.75-.86.44-.03.83.3.86.75.03.44-.3.83-.75.86-.44.03-.83-.3-.86-.74ZM38.3,48.55c-2.67.01-5.24.73-7.84,1.28-.28.04-.73.08-.82-.26,3.13-2.63,7.28-3.8,11.14-4.71,6.03-.47-3.44-2.9-5.23-4.1,1.18-2.61,2.16-5.1,2.8-7.25,3.22,2.07,10.73,7.65,11.5,11.57.31,5.37-8.22,2.95-11.55,3.47ZM39.06,34.03s0-.03,0-.05c-.04.02-.02.03,0,.05ZM39.05,33.98s-.02.03,0,.05c0-.02,0-.03,0-.05ZM39.05,33.98s-.02.03,0,.05c0-.02,0-.03,0-.05ZM39.05,33.98s-.02.03,0,.05c0-.02,0-.03,0-.05ZM39.05,33.98s-.02.03,0,.05c0-.02,0-.03,0-.05ZM39.05,33.98s-.02.03,0,.05c0-.02,0-.03,0-.05ZM39.05,33.98s-.02.03,0,.05c0-.02,0-.03,0-.05ZM39.05,33.98s-.02.03,0,.05c0-.02,0-.03,0-.05ZM39.05,33.98s-.02.03,0,.05c0-.02,0-.03,0-.05ZM39.05,33.98s-.02.03,0,.05c0-.02,0-.03,0-.05ZM39.05,33.98s-.02.03,0,.05c0-.02,0-.03,0-.05ZM39.05,33.98s-.02.03,0,.05c0-.02,0-.03,0-.05ZM39.05,33.98s-.02.03,0,.05c0-.02,0-.03,0-.05Z"/>
    <g>
      <path class="st3" d="M44.58,17.77c-.79.06-1.47-.54-1.53-1.32-.06-.79.53-1.47,1.32-1.53.79-.06,1.47.53,1.53,1.32s-.54,1.47-1.32,1.53Z"/>
      <path class="st3" d="M44.9,12.89c.04.55-.37,1.03-.93,1.07-.55.04-1.03-.37-1.07-.93-.04-.55.38-1.03.93-1.07.55-.04,1.03.38,1.07.93Z"/>
      <path class="st3" d="M43.48,9.93c.03.44-.3.83-.75.86-.44.03-.83-.3-.86-.74-.03-.45.3-.83.75-.86.44-.03.83.3.86.75Z"/>
      <path class="st3" d="M42.07,7.82c.03.4-.27.75-.68.78-.4.03-.75-.27-.78-.68-.03-.4.27-.75.68-.78.4-.03.75.27.78.67Z"/>
      <path class="st3" d="M40.5,6.1c.02.32-.22.61-.54.63-.32.02-.6-.22-.63-.54-.02-.32.22-.61.54-.63.32-.02.6.22.63.54Z"/>
      <path class="st3" d="M39.02,4.8c.02.22-.15.41-.37.43-.22.02-.41-.15-.43-.37-.02-.22.15-.41.37-.43.22-.02.41.15.43.37Z"/>
    </g>
    <g>
      <path class="st3" d="M28.44,33.83c-.78.14-1.52-.38-1.66-1.16-.14-.78.38-1.52,1.16-1.66.78-.14,1.52.38,1.66,1.16.14.78-.38,1.52-1.16,1.66Z"/>
      <path class="st3" d="M28.5,36.86c-.55.1-1.07-.27-1.16-.81-.1-.55.26-1.07.81-1.16.55-.1,1.07.26,1.16.81.1.54-.26,1.07-.81,1.16Z"/>
      <path class="st3" d="M27.94,39.86c-.44.08-.86-.21-.94-.65-.08-.44.21-.86.65-.94.44-.08.86.21.94.65.08.44-.21.86-.65.94Z"/>
      <path class="st3" d="M27.13,42.17c-.4.07-.78-.19-.85-.59-.07-.4.19-.78.59-.85.4-.07.78.19.85.59.07.4-.19.78-.59.85Z"/>
      <path class="st3" d="M26.15,44.06c-.32.06-.62-.15-.68-.47-.06-.32.15-.63.47-.68.32-.06.63.16.68.48.06.32-.16.63-.48.68Z"/>
      <path class="st3" d="M25.18,45.46c-.22.04-.42-.11-.46-.32-.04-.22.11-.43.32-.46.22-.04.42.11.46.32.04.22-.11.42-.32.46Z"/>
    </g>
    <path class="st1" d="M50.4,25.86c-1.06-5.66-3.81-9.94-6.24-12.71h-1.93c.87,1.39,1.62,2.86,2.04,4.55,1.33,5.29-.19,9.79-.19,9.79,3.44,3.03,4.39,7.47,3.07,11.8-.22,2.55,4.74-5.52,3.25-13.43ZM48.1,38c.06,0,.03.03,0,0h0Z"/>
    <path class="st1" d="M45.07,39.64c-.67,6.14-7.01,18.27-12.02,26.51-.78-.14-1.53-.32-2.27-.52,3.73-7.57,7.58-15.9,7.48-24.25-.09-7.56-11.92,2.51-14.51,4.69-8.7,8.74,3.1-5.37,5.28-7.91,6.23-7.28,17.72-13.79,16.05,1.48Z"/>
  </g>
  <g>
    <path class="st0" d="M72.63,57.2h-19.04V3.35h19.04c5.75,0,10.66,1.13,14.73,3.38,4.07,2.25,7.21,5.38,9.41,9.37,2.2,4,3.3,8.62,3.3,13.87s-1.13,9.86-3.37,13.99c-2.25,4.12-5.42,7.36-9.52,9.71-4.1,2.35-8.95,3.52-14.55,3.52ZM64.93,14.33v31.89h7.12c3.65,0,6.68-.69,9.11-2.06,2.42-1.37,4.26-3.22,5.51-5.54,1.25-2.32,1.87-5.2,1.87-8.65,0-3.24-.62-6.04-1.87-8.38s-3.1-4.14-5.55-5.39c-2.45-1.25-5.47-1.87-9.07-1.87h-7.12Z"/>
    <path class="st0" d="M103.91,2.62h11.1v9.2h-11.1V2.62ZM115.01,57.2h-11.1V17.15h11.1v40.05Z"/>
    <path class="st0" d="M168.39,3.35l-19.5,53.85h-12.3L117.16,3.35h12.53l13.35,39.6,13.73-39.6h11.63Z"/>
    <path class="st0" d="M170.58,2.62h11.1v9.2h-11.1V2.62ZM181.68,57.2h-11.1V17.15h11.1v40.05Z"/>
  </g>
  <g>
    <path class="st2" d="M14.51,64.96c.71.51,1.23,1.16,1.56,1.96.33.79.5,1.62.5,2.48s-.17,1.67-.5,2.46c-.33.79-.86,1.44-1.56,1.95-.71.51-1.59.77-2.65.77s-1.96-.26-2.67-.77c-.71-.51-1.24-1.16-1.57-1.95-.33-.79-.5-1.61-.5-2.46s.17-1.69.5-2.48c.33-.79.86-1.45,1.57-1.96.71-.51,1.6-.77,2.67-.77s1.95.26,2.65.77ZM13.64,72.61c.48-.37.83-.84,1.05-1.43.22-.58.34-1.19.34-1.81s-.11-1.23-.34-1.81c-.22-.57-.58-1.05-1.05-1.42-.48-.37-1.08-.56-1.79-.56s-1.31.18-1.79.55c-.48.37-.83.84-1.05,1.42-.22.58-.34,1.18-.34,1.81s.11,1.22.34,1.81c.22.58.58,1.06,1.05,1.43.48.37,1.08.55,1.79.55s1.31-.18,1.79-.55Z"/>
    <path class="st2" d="M22.4,67.4v1.41c-.64,0-1.17.14-1.58.42-.42.28-.72.65-.91,1.09-.19.44-.29.91-.29,1.4v2.68h-1.55v-5.36c0-.08-.02-.13-.06-.17-.04-.04-.1-.06-.17-.06h-.77v-1.41h1.73c.19,0,.34.05.46.14.11.1.17.23.17.42,0,.38-.07.98-.22,1.81h.22c.13-.47.34-.88.61-1.23.27-.35.61-.63,1-.83.4-.2.85-.3,1.35-.3Z"/>
    <path class="st2" d="M23.81,72.16v-3.36h-1.13v-1.41h1.13v-3.04h1.55v3.04h2.08v1.41h-2.08v3.34c0,.23.08.43.24.6.16.17.36.25.59.25h1.25v1.41h-1.39c-.48,0-.89-.11-1.23-.32-.34-.21-.59-.49-.76-.83-.17-.34-.25-.71-.25-1.09Z"/>
    <path class="st2" d="M34.98,70.38v4.01h-1.55v-3.9c0-.55-.12-1.01-.37-1.38-.24-.36-.63-.57-1.15-.63-.42-.05-.78,0-1.08.17-.3.16-.54.4-.7.7-.17.31-.27.66-.32,1.06-.02.27-.03.54-.04.82,0,.29-.01.59-.01.92v2.24h-1.55v-10.04h1.55v3.27c0,.43-.11.97-.33,1.63h.22c.14-.53.38-.96.72-1.29.33-.33.72-.56,1.17-.67.44-.11.89-.11,1.33,0,.48.11.88.34,1.2.67.32.33.56.71.71,1.13.15.43.22.85.22,1.28Z"/>
    <path class="st2" d="M41.21,67.77c.51.36.88.82,1.12,1.38.23.56.35,1.14.35,1.76s-.12,1.2-.35,1.76c-.23.56-.61,1.02-1.12,1.38-.51.36-1.15.54-1.93.54s-1.43-.18-1.94-.54c-.51-.36-.88-.82-1.12-1.38-.23-.56-.35-1.14-.35-1.76s.12-1.2.35-1.76c.23-.56.61-1.02,1.12-1.38.51-.36,1.16-.54,1.94-.54s1.42.18,1.93.54ZM40.45,73.04c.31-.24.53-.56.67-.94.14-.38.22-.78.22-1.2s-.07-.82-.22-1.2c-.14-.38-.37-.7-.67-.94-.31-.24-.7-.37-1.18-.37s-.87.12-1.18.37c-.31.24-.53.56-.67.94-.14.38-.22.78-.22,1.2s.07.82.22,1.2c.14.38.37.7.67.94.31.24.7.37,1.18.37s.87-.12,1.18-.37Z"/>
    <path class="st2" d="M50.42,72.67c-.23.56-.58,1.02-1.05,1.37-.47.35-1.06.53-1.76.53-.65,0-1.17-.15-1.56-.44-.39-.29-.69-.66-.9-1.1h-.23c.15.53.23,1.08.23,1.68v3.67h-1.55v-10.98h1.55v.1c0,.21-.02.43-.07.65-.05.22-.1.43-.16.62h.23c.02-.06.05-.12.09-.2.15-.25.33-.47.54-.67.21-.2.47-.36.78-.48.32-.12.68-.19,1.1-.19.69,0,1.27.18,1.73.53.47.35.81.81,1.04,1.37.22.56.34,1.15.34,1.77s-.11,1.21-.34,1.77ZM48.66,69.26c-.37-.42-.86-.63-1.48-.63-.4,0-.76.1-1.07.29-.31.19-.55.46-.72.8-.17.34-.25.74-.25,1.18,0,.67.19,1.21.56,1.63.37.42.86.63,1.48.63.4,0,.76-.1,1.07-.29.31-.19.55-.46.72-.8.17-.34.25-.74.25-1.18,0-.67-.18-1.21-.55-1.63Z"/>
    <path class="st2" d="M58.98,74.41h-1.12c-.28,0-.49-.08-.65-.25-.16-.17-.24-.38-.24-.64,0-.2.02-.4.07-.6.05-.2.1-.37.16-.52h-.23c-.11.31-.26.61-.47.9-.21.3-.45.54-.73.72-.36.23-.75.39-1.16.47-.41.09-.84.1-1.29.04-.33-.04-.63-.15-.92-.32-.29-.18-.52-.41-.69-.71-.17-.3-.26-.63-.26-.99,0-.57.16-1.02.47-1.33.31-.32.71-.53,1.21-.65.23-.06.47-.1.73-.14.26-.03.5-.06.72-.09.39-.05.7-.09.92-.13l.19-.04c.3-.06.51-.13.65-.22.13-.09.18-.24.13-.45-.04-.18-.13-.35-.29-.49-.15-.15-.35-.26-.58-.34-.23-.08-.5-.12-.8-.12-.36,0-.68.06-.95.19-.27.12-.47.29-.62.5-.14.21-.22.44-.22.67h-1.51c0-.45.13-.88.38-1.28.25-.41.63-.73,1.13-.98.5-.25,1.1-.37,1.81-.37s1.3.13,1.79.38c.5.25.87.59,1.12,1,.25.41.37.86.37,1.35v2.75c0,.08.03.15.09.21.06.06.14.09.22.09h.56v1.41ZM56.07,70.79c-.24.06-.55.13-.95.19-.31.06-.65.11-1.02.17-.31.05-.58.17-.82.37-.24.2-.36.45-.36.75,0,.29.1.53.3.72.2.2.44.32.73.37.31.03.57.03.79,0,.22-.03.47-.12.75-.27.29-.16.52-.37.7-.62.18-.25.28-.51.32-.77.03-.18.04-.38.04-.59v-.52c-.09.07-.25.13-.49.19Z"/>
    <path class="st2" d="M60.94,72.18c.13.31.35.57.64.79.29.22.66.32,1.11.32s.85-.11,1.14-.34c.29-.22.51-.53.65-.91h1.51c-.15.66-.49,1.25-1.01,1.76-.52.51-1.28.77-2.27.77-.78,0-1.44-.18-1.96-.54-.52-.36-.9-.82-1.14-1.38-.24-.56-.36-1.14-.36-1.76s.12-1.2.36-1.76c.24-.56.62-1.02,1.14-1.38.52-.36,1.17-.54,1.96-.54s1.44.18,1.96.54c.53.36.91.85,1.15,1.46.24.61.35,1.28.31,2.01h-5.43c.03.32.11.63.24.94ZM61.69,68.77c-.28.18-.49.4-.65.67-.15.27-.25.56-.3.85h3.9c-.03-.27-.12-.55-.27-.83-.15-.28-.37-.51-.65-.69-.28-.18-.62-.27-1.03-.27s-.73.09-1,.27Z"/>
    <path class="st2" d="M67.08,69.12c.22-.56.56-1.02,1.03-1.37.47-.35,1.05-.52,1.75-.52.65,0,1.17.14,1.56.43.39.29.69.65.91,1.1h.23c-.15-.53-.23-1.08-.23-1.68v-2.72h1.55v10.04h-1.55v-.11c0-.2.02-.41.07-.63.05-.22.1-.43.16-.62h-.23s-.05.1-.1.19c-.21.4-.51.73-.9.97-.39.25-.89.37-1.51.37-.68,0-1.25-.18-1.71-.53-.46-.35-.81-.81-1.03-1.37-.22-.56-.33-1.15-.33-1.77s.11-1.21.33-1.78ZM68.85,72.53c.37.42.86.63,1.47.63s1.09-.21,1.46-.63c.37-.42.55-.97.55-1.63s-.18-1.21-.55-1.63c-.37-.42-.85-.63-1.46-.63s-1.1.21-1.47.63c-.37.42-.55.97-.55,1.63s.18,1.21.55,1.63Z"/>
    <path class="st2" d="M77.04,67.93v6.47h-1.55v-5.31c0-.09-.03-.16-.09-.21-.06-.05-.12-.08-.2-.08h-.63v-1.41h1.94c.14,0,.27.05.37.15.11.1.16.23.16.38ZM76.23,65.61c.21,0,.39-.08.55-.24.16-.16.24-.34.24-.55s-.08-.41-.24-.56c-.16-.15-.34-.23-.55-.23-.23,0-.42.08-.58.23-.16.15-.24.34-.24.56s.08.39.24.55c.16.16.35.24.58.24Z"/>
    <path class="st2" d="M83.02,72.12h1.63c-.18.7-.54,1.28-1.08,1.75-.54.47-1.27.7-2.19.7-.78,0-1.43-.18-1.95-.54-.52-.36-.89-.82-1.13-1.38-.24-.56-.36-1.14-.36-1.76s.12-1.2.36-1.76c.24-.56.62-1.02,1.13-1.38.52-.36,1.17-.54,1.95-.54.62,0,1.16.11,1.61.34.45.23.81.53,1.08.9.27.37.47.78.58,1.22h-1.63c-.12-.31-.32-.56-.6-.76-.27-.2-.62-.3-1.04-.3s-.79.11-1.07.33c-.28.22-.49.5-.62.85-.13.34-.2.71-.2,1.09s.07.75.2,1.09c.13.34.34.63.62.85.28.22.64.33,1.07.33s.76-.1,1.03-.29c.27-.2.47-.45.6-.75Z"/>
    <path class="st2" d="M97.26,69.89c-.29.11-.53.3-.73.57l-.57.83,2.68,3.1h-1.72l-1.76-2.05-.63.92c-.19.25-.39.47-.61.65s-.48.34-.78.47c-.31.12-.66.19-1.06.19-.58,0-1.12-.11-1.6-.33-.48-.22-.87-.56-1.17-1.02-.3-.46-.44-1.03-.44-1.71,0-.55.12-1.03.37-1.43.25-.4.56-.71.95-.92.38-.21.76-.32,1.13-.32.23,0,.41.03.54.08.13.05.25.12.36.19l.09.03.17-.17c-.48-.29-.87-.59-1.16-.9l-.16-.16c-.22-.24-.39-.48-.52-.72-.12-.24-.19-.53-.19-.85,0-.41.11-.78.32-1.11s.52-.59.91-.77c.39-.18.84-.27,1.35-.27s.99.09,1.38.28c.4.19.7.44.92.77.22.33.33.7.33,1.12h-1.55c0-.28-.1-.49-.3-.65s-.45-.24-.76-.24-.56.08-.76.24-.3.38-.3.65c0,.14.05.31.16.49.11.18.25.39.44.62.84.95,1.68,1.9,2.51,2.85l.6-.83c.3-.35.67-.61,1.11-.77.44-.16.98-.24,1.6-.24v1.28c-.49,0-.87.05-1.16.16ZM94.32,71.39l-.77-.9c-.43-.51-.9-.76-1.41-.75-.29,0-.56.06-.82.19-.26.13-.48.33-.65.6-.17.27-.26.61-.26,1.01s.08.72.25.99c.17.27.38.46.65.58.26.12.54.18.84.18.27,0,.51-.07.73-.2.22-.13.43-.32.65-.54.07-.1.13-.19.2-.27.21-.3.41-.59.6-.89Z"/>
    <path class="st2" d="M109.64,69.55c.24.14.44.34.58.58.14.24.22.51.22.8v3.47h-1.42v-3.43c0-.25-.09-.47-.28-.65s-.41-.28-.67-.28h-3.46v4.36h-1.52v-10.04h4.57c.66,0,1.21.11,1.66.33.44.22.77.52.99.89.22.37.32.8.32,1.28s-.11.85-.34,1.18c-.22.33-.47.57-.74.73-.27.16-.5.28-.69.34h-.03v.23c.29,0,.55.07.8.22ZM108.3,68.45c.24-.12.43-.29.57-.5.14-.22.22-.47.22-.75s-.07-.55-.22-.77c-.14-.22-.33-.38-.57-.49-.24-.11-.51-.17-.8-.17h-2.85v2.87h2.85c.3,0,.56-.06.8-.18Z"/>
    <path class="st2" d="M112.96,72.18c.13.31.35.57.64.79.29.22.66.32,1.11.32s.85-.11,1.14-.34c.29-.22.51-.53.65-.91h1.51c-.15.66-.49,1.25-1.01,1.76-.52.51-1.28.77-2.27.77-.78,0-1.44-.18-1.96-.54-.52-.36-.9-.82-1.14-1.38-.24-.56-.36-1.14-.36-1.76s.12-1.2.36-1.76c.24-.56.62-1.02,1.14-1.38.52-.36,1.17-.54,1.96-.54s1.44.18,1.96.54c.53.36.91.85,1.15,1.46.24.61.35,1.28.31,2.01h-5.43c.03.32.11.63.24.94ZM113.7,68.77c-.28.18-.49.4-.65.67-.15.27-.25.56-.3.85h3.9c-.03-.27-.12-.55-.27-.83-.15-.28-.37-.51-.65-.69-.28-.18-.62-.27-1.03-.27s-.73.09-1,.27Z"/>
    <path class="st2" d="M125.89,70.38v4.01h-1.55v-3.9c0-.55-.12-1.01-.37-1.38-.24-.36-.63-.57-1.15-.63-.42-.05-.78,0-1.08.17-.3.16-.54.4-.7.7-.17.31-.27.66-.32,1.06-.02.27-.03.54-.04.82,0,.29-.01.59-.01.92v2.24h-1.55v-10.04h1.55v3.27c0,.43-.11.97-.33,1.63h.22c.14-.53.38-.96.72-1.29.33-.33.72-.56,1.17-.67.44-.11.89-.11,1.33,0,.48.11.88.34,1.2.67.32.33.56.71.71,1.13.15.43.22.85.22,1.28Z"/>
    <path class="st2" d="M134.38,74.41h-1.12c-.28,0-.49-.08-.65-.25-.16-.17-.24-.38-.24-.64,0-.2.02-.4.07-.6.05-.2.1-.37.16-.52h-.23c-.11.31-.26.61-.47.9-.21.3-.45.54-.73.72-.36.23-.75.39-1.16.47-.41.09-.84.1-1.29.04-.32-.04-.63-.15-.92-.32-.29-.18-.52-.41-.69-.71-.17-.3-.26-.63-.26-.99,0-.57.16-1.02.47-1.33.31-.32.71-.53,1.21-.65.23-.06.47-.1.73-.14.26-.03.5-.06.72-.09.39-.05.7-.09.92-.13l.19-.04c.3-.06.51-.13.65-.22.13-.09.18-.24.13-.45-.04-.18-.13-.35-.29-.49-.15-.15-.35-.26-.58-.34-.23-.08-.5-.12-.8-.12-.36,0-.68.06-.95.19-.27.12-.47.29-.62.5-.14.21-.22.44-.22.67h-1.51c0-.45.13-.88.38-1.28.25-.41.63-.73,1.13-.98.5-.25,1.1-.37,1.81-.37s1.3.13,1.79.38c.5.25.87.59,1.12,1,.25.41.37.86.37,1.35v2.75c0,.08.03.15.09.21.06.06.14.09.22.09h.56v1.41ZM131.47,70.79c-.24.06-.55.13-.95.19-.31.06-.65.11-1.02.17-.31.05-.58.17-.82.37-.24.2-.36.45-.36.75,0,.29.1.53.3.72.2.2.44.32.73.37.31.03.57.03.79,0,.22-.03.47-.12.75-.27.29-.16.52-.37.7-.62.18-.25.28-.51.32-.77.03-.18.04-.38.04-.59v-.52c-.09.07-.25.13-.49.19Z"/>
    <path class="st2" d="M140.87,67.76c.47.35.83.81,1.06,1.37.23.56.35,1.15.35,1.77s-.11,1.21-.34,1.77-.58,1.02-1.05,1.37c-.47.35-1.05.53-1.73.53s-1.2-.14-1.59-.43c-.39-.29-.7-.65-.92-1.1h-.23c.15.44.23.86.23,1.25v.11h-1.55v-10.04h1.55v2.72c0,.59-.08,1.15-.23,1.68h.23c.02-.06.05-.12.09-.2.24-.39.55-.71.92-.96.38-.25.86-.37,1.46-.37.7,0,1.28.18,1.76.53ZM140.17,72.53c.38-.42.57-.97.57-1.63s-.19-1.21-.57-1.63c-.38-.42-.87-.63-1.48-.63-.4,0-.76.1-1.06.29-.31.2-.54.46-.72.8-.17.34-.26.73-.26,1.17,0,.67.19,1.21.56,1.63.37.42.87.63,1.48.63s1.11-.21,1.48-.63Z"/>
    <path class="st2" d="M154.07,71.4h1.68v.03c-.17.46-.41.92-.73,1.39-.33.47-.8.88-1.43,1.23-.63.35-1.39.52-2.3.52-1.08,0-1.98-.26-2.7-.77-.72-.51-1.25-1.16-1.58-1.95-.34-.79-.51-1.61-.51-2.47s.17-1.68.51-2.47c.34-.79.87-1.44,1.59-1.95.72-.51,1.62-.77,2.69-.77.92,0,1.69.18,2.32.53.63.35,1.1.77,1.43,1.24.32.47.56.94.72,1.4h-1.68c-.22-.49-.56-.9-1.02-1.25-.46-.34-1.05-.52-1.78-.52s-1.33.18-1.82.55c-.49.37-.84.84-1.07,1.42-.22.58-.34,1.18-.34,1.8s.11,1.24.34,1.81c.22.58.58,1.05,1.07,1.43.49.37,1.09.56,1.82.56s1.29-.16,1.74-.49c.45-.33.8-.73,1.03-1.21l.03-.06Z"/>
    <path class="st2" d="M158.05,72.18c.13.31.35.57.64.79.29.22.66.32,1.11.32s.85-.11,1.14-.34c.29-.22.51-.53.65-.91h1.51c-.15.66-.49,1.25-1.01,1.76-.52.51-1.28.77-2.27.77-.78,0-1.44-.18-1.96-.54-.52-.36-.9-.82-1.14-1.38-.24-.56-.36-1.14-.36-1.76s.12-1.2.36-1.76c.24-.56.62-1.02,1.14-1.38.52-.36,1.17-.54,1.96-.54s1.44.18,1.96.54c.53.36.91.85,1.15,1.46.24.61.35,1.28.31,2.01h-5.43c.03.32.11.63.24.94ZM158.8,68.77c-.28.18-.49.4-.65.67-.15.27-.25.56-.3.85h3.9c-.03-.27-.12-.55-.27-.83-.15-.28-.37-.51-.65-.69-.28-.18-.62-.27-1.03-.27s-.73.09-1,.27Z"/>
    <path class="st2" d="M170.98,70.38v4.01h-1.55v-3.9c0-.55-.12-1.01-.37-1.38-.24-.36-.63-.57-1.15-.63-.42-.05-.78,0-1.08.17-.3.16-.54.4-.7.7-.17.31-.27.66-.32,1.06-.04.56-.06,1.14-.06,1.73v2.24h-1.55v-7h1.55v.36c0,.22-.03.47-.1.74-.07.27-.14.53-.23.77h.22c.14-.53.38-.96.72-1.29.33-.33.72-.56,1.17-.67.44-.11.89-.11,1.33,0,.48.11.88.34,1.2.67.32.33.56.71.71,1.13.15.43.22.85.22,1.28Z"/>
    <path class="st2" d="M172.59,72.16v-3.36h-1.13v-1.41h1.13v-3.04h1.55v3.04h2.08v1.41h-2.08v3.34c0,.23.08.43.24.6.16.17.36.25.59.25h1.25v1.41h-1.39c-.48,0-.89-.11-1.23-.32-.34-.21-.59-.49-.76-.83-.17-.34-.25-.71-.25-1.09Z"/>
    <path class="st2" d="M178.33,72.18c.13.31.35.57.64.79.29.22.66.32,1.11.32s.85-.11,1.14-.34c.29-.22.51-.53.65-.91h1.51c-.15.66-.49,1.25-1.01,1.76-.52.51-1.28.77-2.27.77-.78,0-1.44-.18-1.96-.54-.52-.36-.9-.82-1.14-1.38-.24-.56-.36-1.14-.36-1.76s.12-1.2.36-1.76c.24-.56.62-1.02,1.14-1.38.52-.36,1.17-.54,1.96-.54s1.44.18,1.96.54c.53.36.91.85,1.15,1.46.24.61.35,1.28.31,2.01h-5.43c.03.32.11.63.24.94ZM179.07,68.77c-.28.18-.49.4-.65.67-.15.27-.25.56-.3.85h3.9c-.03-.27-.12-.55-.27-.83-.15-.28-.37-.51-.65-.69-.28-.18-.62-.27-1.03-.27s-.73.09-1,.27Z"/>
    <path class="st2" d="M189.11,67.4v1.41c-.64,0-1.17.14-1.58.42-.42.28-.72.65-.91,1.09-.19.44-.29.91-.29,1.4v2.68h-1.55v-5.36c0-.08-.02-.13-.06-.17-.04-.04-.1-.06-.17-.06h-.77v-1.41h1.73c.19,0,.34.05.46.14.11.1.17.23.17.42,0,.38-.07.98-.22,1.81h.22c.13-.47.34-.88.61-1.23.27-.35.61-.63,1-.83.4-.2.85-.3,1.35-.3Z"/>
  </g>
</svg>